<?xml version="1.0" encoding="UTF-8"?>
<svg viewBox="0 0 460.96658 386.08194" xmlns="http://www.w3.org/2000/svg">
 <path d="m460.97 119.65v-119.46h-256.29v119.46h256.29z"/>
 <path d="m460.97 111.91v-111.73h-246.51v111.73h246.51z" fill="#fff"/>
 <path d="m460.97 104.96v-104.78h-241.86v104.78h241.86z"/>
 <path d="m105.65 74.389c20.54 0 37.194-16.651 37.194-37.193s-16.654-37.196-37.194-37.196-37.196 16.654-37.196 37.196 16.653 37.193 37.196 37.193z"/>
 <path d="m8.0637 206.26h32.679l19.792-71.858h8.031l-19.332 71.858h115.61l-20.713-71.858h8.438l11.046 35.224c5.229 14.878 18.411 18.317 28.536 5.636l40.068-48.383c12.5-16.25-10.125-33.375-23.25-19.125l-23.625 28.25c0 0.469-4.5-15.5-4.5-15.5-5.5-19-23.5-37.675-50.5-37.675h-51c-24 0-42.895 21.008-46.802 34.195l-24.474 89.236z"/>
 <path d="m200.52 231.79v-17.023h-200.52v17.023h200.52z"/>
 <path d="m178.53 386.08v-151.03h-178.53v151.03h178.53z"/>
 <path d="m320.81 12.958-3.6036-3.4317-92.624 97.263 3.6036 3.4317 92.624-97.263z" fill="#fff"/>
 <path d="m168.49 375.55v-130.85h-168.49v130.85h168.49z" fill="#fff"/>
 <path d="m165.91 373.91v-127.87h-165.91v127.87h165.91z"/>
 <g fill="#fff" font-family="Bitstream Vera Sans" font-size="40">
  <path d="m315.83 66.078-11.094-28.633h4.1016l7.4414 20.801c0.59894 1.6667 1.1002 3.2292 1.5039 4.6875 0.4427-1.5625 0.95702-3.125 1.543-4.6875l7.7344-20.801h3.8672l-11.211 28.633z"/>
  <path d="m352.41 49.242h-18.906v-3.2812h18.906zm0 8.6914h-18.906v-3.2812h18.906z"/>
 </g>
 <g fill="#fff" font-family="Bitstream Vera Sans" font-size="40">
  <path d="m380.5 40.739v-6.8555h-12.422v-3.2227l13.066-18.555h2.8711v18.555h3.8672v3.2227h-3.8672v6.8555zm0-10.078v-12.91l-8.9648 12.91z"/>
 </g>
 <g fill="#fff" font-family="Bitstream Vera Sans" font-size="40">
  <path d="m370.28 82.094 3.5156-0.46875c0.40364 1.9922 1.0905 3.4277 2.0606 4.3066s2.1517 1.3184 3.5449 1.3184c1.6536 3e-6 3.0501-0.57291 4.1894-1.7188s1.709-2.5651 1.709-4.2578c-2e-5 -1.6146-0.52736-2.946-1.582-3.9941s-2.3958-1.5722-4.0234-1.5723c-0.66407 1.4e-5 -1.4909 0.13022-2.4805 0.39063l0.39063-3.0859c0.23436 0.02606 0.42316 0.03908 0.5664 0.03906 1.4974 1.6e-5 2.845-0.39061 4.043-1.1719s1.7969-1.9857 1.7969-3.6133c-2e-5 -1.289-0.43622-2.3568-1.3086-3.2031s-1.9987-1.2695-3.3789-1.2695c-1.3672 2.6e-5 -2.5065 0.42971-3.418 1.2891s-1.4974 2.1485-1.7578 3.8672l-3.5156-0.625c0.42968-2.3568 1.4062-4.1829 2.9297-5.4785s3.418-1.9433 5.6836-1.9434c1.5625 2.9e-5 3.0013 0.33531 4.3164 1.0059s2.3209 1.5853 3.0176 2.7441 1.0449 2.3894 1.0449 3.6914c-2e-5 1.237-0.33205 2.3633-0.9961 3.3789s-1.6472 1.8229-2.9492 2.4219c1.6927 0.39064 3.0078 1.2012 3.9453 2.4316s1.4062 2.7702 1.4062 4.6191c-2e-5 2.5-0.91148 4.6191-2.7344 6.3574s-4.1276 2.6074-6.9141 2.6074c-2.513-1e-6 -4.5996-0.7487-6.2598-2.2461s-2.6074-3.4375-2.8418-5.8203z"/>
 </g>
 <path d="m399.75 53.976v-3.8565h-43.647v3.8565h43.647z" fill="#fff"/>
 <g fill="#fff" font-family="Bitstream Vera Sans" font-size="21.698">
  <path d="m442.72 35.398 1.907-0.25427c0.21895 1.0806 0.59152 1.8594 1.1177 2.3361s1.1672 0.71514 1.9229 0.71513c0.89701 1e-6 1.6545-0.31077 2.2725-0.93232s0.92702-1.3914 0.92703-2.3096c-1e-5 -0.87581-0.28606-1.598-0.85816-2.1666s-1.2996-0.85286-2.1825-0.85286c-0.36022 8e-6 -0.80872 0.07064-1.3455 0.21189l0.21189-1.674 0.30724 0.02119c0.81225 9e-6 1.5433-0.21188 2.1931-0.63568s0.9747-1.0771 0.97471-1.96c-1e-5 -0.69923-0.23662-1.2784-0.70984-1.7375s-1.0842-0.68863-1.8329-0.68865c-0.74163 1.4e-5 -1.3596 0.2331-1.8541 0.69924s-0.81225 1.1654-0.95351 2.0977l-1.907-0.33903c0.23308-1.2784 0.76281-2.269 1.5892-2.9718s1.854-1.0542 3.083-1.0542c0.84756 1.6e-5 1.628 0.18189 2.3414 0.54562s1.259 0.85994 1.6369 1.4885 0.5668 1.2961 0.56681 2.0024c-1e-5 0.671-0.18012 1.282-0.54033 1.8329s-0.89348 0.98884-1.5998 1.3137c0.91819 0.2119 1.6316 0.65158 2.1401 1.319s0.7628 1.5027 0.76281 2.5056c-1e-5 1.3561-0.49443 2.5056-1.4832 3.4485s-2.239 1.4144-3.7505 1.4144c-1.3632 0-2.495-0.40613-3.3956-1.2184s-1.4144-1.8646-1.5415-3.1572z"/>
 </g>
 <path d="m401.9 47.197s1.326-3.7128 6.6301-4.5084 9.0169 1.8564 13.26 1.8564h4.2432" fill="none" stroke="#fff" stroke-width="2.2663"/>
 <g transform="rotate(-90)" fill="#fff" font-family="Bitstream Vera Sans" font-size="41.205">
  <path d="m-43.75 411.08h-19.476v-3.3801h19.476zm0 8.9533h-19.476v-3.3801h19.476z"/>
 </g>
 <g fill="#fff" font-family="Bitstream Vera Sans" font-size="40">
  <path d="m429.82 63.146v-20.742h3.1641v3.1445c0.80728-1.4713 1.5527-2.4414 2.2363-2.9102s1.4355-0.7031 2.2559-0.70313c1.1849 2.1e-5 2.3893 0.37762 3.6133 1.1328l-1.2109 3.2617c-0.85939-0.5078-1.7188-0.7617-2.5781-0.76172-0.76824 1.8e-5 -1.4584 0.23114-2.0703 0.69336s-1.0482 1.1035-1.3086 1.9238c-0.39063 1.25-0.58594 2.6172-0.58594 4.1016v10.859z"/>
 </g>
</svg>
